<?xml version="1.0" encoding="UTF-8"?>
<svg version="1.2" baseProfile="tiny-ps" xmlns="http://www.w3.org/2000/svg" 
    xmlns:xlink="http://www.w3.org/1999/xlink" width="96" height="96" 
    viewBox="0 0 256 256" overflow="visible" xml:space="preserve">

<title>WhyJoin - Official Logo</title>

<rect width="256" height="256" fill="#fff"/>
<path d="m166.74 121.62-30.163 12.067 21.381 27.489c0.451 0.575 0.784 1.233 0.98 1.938 0.196 0.704 0.251 1.44 0.162 2.165-0.089 0.726-0.32 1.427-0.681 2.062-0.36 0.636-0.843 1.195-1.42 1.644-0.576 0.449-1.236 0.779-1.941 0.973-0.705 0.193-1.441 0.245-2.167 0.153-0.725-0.092-1.425-0.326-2.059-0.689-0.635-0.363-1.191-0.848-1.638-1.426l-21.529-27.679-21.529 27.679c-0.907 1.155-2.234 1.905-3.692 2.084s-2.9276-0.227-4.0868-1.13c-1.1591-0.902-1.9136-2.226-2.0982-3.684-0.1846-1.457 0.2157-2.928 1.1133-4.09l21.381-27.489-30.163-12.067c-0.6905-0.261-1.3221-0.657-1.8578-1.165s-0.9648-1.117-1.2621-1.793c-0.2973-0.675-0.457-1.403-0.4696-2.141-0.0126-0.739 0.1221-1.472 0.3962-2.157s0.682-1.309 1.2001-1.835c0.518-0.526 1.1357-0.943 1.8169-1.227 0.6812-0.285 1.4123-0.43 2.1504-0.429 0.7381 2e-3 1.4686 0.151 2.1485 0.438l29.4 11.762v-32.519c0-1.4726 0.585-2.8849 1.626-3.9262 1.041-1.0412 2.453-1.6262 3.926-1.6262s2.885 0.585 3.926 1.6262c1.041 1.0413 1.626 2.4536 1.626 3.9262v32.519l29.4-11.762c0.68-0.287 1.41-0.436 2.149-0.438 0.738-1e-3 1.469 0.144 2.15 0.429 0.681 0.284 1.299 0.701 1.817 1.227s0.926 1.15 1.2 1.835 0.409 1.418 0.396 2.157c-0.012 0.738-0.172 1.466-0.469 2.141-0.298 0.676-0.727 1.285-1.263 1.793-0.535 0.508-1.167 0.904-1.857 1.165z" fill="#0052FF"/>
</svg>
